<svg width="89" height="77" viewBox="0 0 89 77" fill="none" xmlns="http://www.w3.org/2000/svg">
<path d="M0.195312 0.19631V70.3455H3.12638V76.1953H17.7947V70.2824H70.6329V76.1322H85.2643V70.2824H88.1953V0.195312L0.195312 0.19631ZM14.8636 73.2149H6.05745V70.2836H14.8636V73.2149ZM82.3322 73.2149H73.526V70.2836H82.3322V73.2149ZM85.2633 55.6769H76.4571L76.458 52.7708H85.2642L85.2633 55.6769ZM79.4009 20.6011L79.4018 49.8388H73.526V58.6074H79.4008L79.4018 61.527H9.00171V8.91442H79.4518V11.8205H73.5262V20.5891L79.4009 20.6011ZM85.2633 49.8015L82.3332 49.8025V20.6393H85.2643L85.2633 49.8015ZM85.2633 17.682H76.4571L76.458 14.7886H85.2642L85.2633 17.682ZM85.2633 11.8322H82.3332V8.96415C82.3332 8.18618 82.023 7.44122 81.4709 6.8915C80.9188 6.34178 80.1697 6.03292 79.3894 6.03292H9.00176C7.37866 6.03972 6.06469 7.34801 6.05795 8.96415V61.5767V61.5757C6.06478 63.1919 7.37868 64.5002 9.00176 64.507H79.4518C81.0778 64.507 82.3956 63.1948 82.3956 61.5757V58.6074H85.3267V67.376H3.12539V3.11464H85.2643L85.2633 11.8322Z" fill="black" stroke="black" stroke-width="0.390625"/>
<path d="M30.992 35.235C30.9968 35.8304 30.6398 36.3694 30.0887 36.5987C29.5376 36.8289 28.9016 36.7045 28.4793 36.284C28.0569 35.8634 27.9311 35.2292 28.1623 34.6805C28.3934 34.1317 28.9348 33.7772 29.5327 33.782C30.3384 33.782 30.992 34.4327 30.992 35.235Z" fill="black" stroke="black" stroke-width="0.390625"/>
<path d="M45.6621 33.7804H39.6741C39.4332 32.0953 38.7719 30.4976 37.7496 29.133L41.9889 24.9118V24.9109C42.2669 24.6379 42.423 24.266 42.423 23.8775C42.423 23.489 42.2669 23.117 41.9889 22.8441C41.4125 22.2827 40.4907 22.2827 39.9132 22.8441L35.6857 27.0653L35.6867 27.0662C34.3133 26.0435 32.7039 25.3801 31.0066 25.1373V19.1739C30.9364 18.4202 30.3014 17.8442 29.5406 17.8442C28.7807 17.8442 28.1457 18.4202 28.0755 19.1739V25.1373C26.3812 25.3801 24.7766 26.0435 23.4082 27.0662L19.1682 22.8443C18.9009 22.5354 18.5166 22.3509 18.1079 22.3363C17.6982 22.3208 17.3012 22.4762 17.0115 22.7647C16.7228 23.0521 16.5667 23.4474 16.5813 23.8554C16.597 24.2633 16.7823 24.646 17.0925 24.9111L21.3325 29.1331C20.3054 30.4957 19.6392 32.0944 19.3944 33.7804H13.3936C12.982 33.7425 12.5723 33.8785 12.266 34.1563C11.9607 34.4341 11.7861 34.8274 11.7861 35.2392C11.7861 35.652 11.9607 36.0454 12.266 36.3232C12.5723 36.601 12.982 36.7369 13.3936 36.699H19.3816C19.6245 38.3861 20.2907 39.9848 21.3198 41.3464L17.0805 45.5676H17.0795C16.5157 46.1426 16.5157 47.0604 17.0795 47.6344C17.3565 47.9103 17.733 48.0637 18.1242 48.0608C18.5114 48.0637 18.8841 47.9102 19.1552 47.6344L23.3945 43.4132H23.3955C24.7611 44.4408 26.3675 45.1052 28.0628 45.3421V51.3046C28.0247 51.7154 28.1613 52.1233 28.4402 52.4273C28.7192 52.7323 29.1143 52.9062 29.5278 52.9062C29.9424 52.9062 30.3374 52.7323 30.6164 52.4273C30.8944 52.1233 31.032 51.7154 30.9939 51.3046V45.3421C32.6931 45.1071 34.3045 44.4428 35.6739 43.4132L39.9132 47.6344C40.1844 47.9112 40.557 48.0647 40.9452 48.0608C41.3325 48.0637 41.7051 47.9102 41.9762 47.6344C42.2542 47.3615 42.4103 46.9895 42.4103 46.601C42.4103 46.2135 42.2542 45.8405 41.9762 45.5676L37.7497 41.3464C38.7709 39.9799 39.4362 38.3831 39.6868 36.6991H45.6624C46.075 36.7369 46.4846 36.601 46.7899 36.3232C47.0962 36.0454 47.2708 35.6521 47.2708 35.2393C47.2708 34.8275 47.0962 34.4341 46.7899 34.1563C46.4846 33.8785 46.0747 33.7425 45.6621 33.7804ZM29.5335 42.549H29.5345C27.5895 42.549 25.7235 41.7797 24.3481 40.4103C22.9727 39.0408 22.2002 37.1829 22.2002 35.246C22.2002 33.3093 22.9727 31.4512 24.3481 30.0817C25.7234 28.7122 27.5893 27.943 29.5345 27.943C31.4795 27.943 33.3455 28.7122 34.7209 30.0817C36.0963 31.4512 36.8688 33.3091 36.8688 35.246C36.8659 37.1807 36.0914 39.0348 34.716 40.4013C33.3407 41.7688 31.4776 42.5361 29.5346 42.5361L29.5335 42.549Z" fill="black" stroke="black" stroke-width="0.390625"/>
<path d="M54.4696 35.2349C53.6591 35.2417 53.0045 35.8934 52.9977 36.7005V38.1661C52.9587 38.5769 53.0962 38.9839 53.3752 39.2889C53.6542 39.5938 54.0492 39.7667 54.4628 39.7667C54.8774 39.7667 55.2714 39.5938 55.5504 39.2889C55.8294 38.9839 55.9669 38.5769 55.9289 38.1661V36.7005C55.9289 35.8963 55.2773 35.2417 54.4696 35.2349Z" fill="black" stroke="black" stroke-width="0.390625"/>
<path d="M61.8034 35.2349C61.0182 35.2747 60.3998 35.9177 60.3939 36.7005V38.1661C60.3559 38.5769 60.4934 38.9839 60.7724 39.2889C61.0514 39.5938 61.4464 39.7667 61.86 39.7667C62.2736 39.7667 62.6686 39.5938 62.9476 39.2889C63.2266 38.9839 63.3641 38.5769 63.326 38.1661V36.7005C63.326 35.8963 62.6745 35.2417 61.8658 35.2349H61.8034Z" fill="black" stroke="black" stroke-width="0.390625"/>
<path d="M69.2001 35.2349C68.3866 35.2349 67.7282 35.8914 67.7282 36.7005V38.1661C67.6892 38.5769 67.8267 38.9839 68.1057 39.2889C68.3846 39.5938 68.7797 39.7667 69.1933 39.7667C69.6078 39.7667 70.0019 39.5938 70.2809 39.2889C70.5599 38.9839 70.6974 38.5769 70.6593 38.1661V36.7005C70.6593 35.8963 70.0078 35.2417 69.2001 35.2349Z" fill="black" stroke="black" stroke-width="0.390625"/>
<path d="M54.4696 41.0854C53.661 41.0854 53.0045 41.7343 52.9977 42.5385V44.0041C52.9587 44.4149 53.0962 44.8219 53.3752 45.1268C53.6542 45.4318 54.0492 45.6057 54.4628 45.6057C54.8774 45.6057 55.2714 45.4318 55.5504 45.1268C55.8294 44.8219 55.9669 44.4149 55.9289 44.0041V42.5385C55.9289 41.7362 55.2753 41.0854 54.4696 41.0854Z" fill="black" stroke="black" stroke-width="0.390625"/>
<path d="M61.8034 41.0854C61.0201 41.1185 60.4007 41.7576 60.3939 42.5385V44.0041C60.3559 44.4149 60.4934 44.8219 60.7724 45.1268C61.0514 45.4318 61.4464 45.6057 61.86 45.6057C62.2736 45.6057 62.6686 45.4318 62.9476 45.1268C63.2266 44.8219 63.3641 44.4149 63.326 44.0041V42.5385C63.326 41.7362 62.6725 41.0854 61.8658 41.0854H61.8034Z" fill="black" stroke="black" stroke-width="0.390625"/>
<path d="M69.2001 41.0855C68.8109 41.0826 68.4364 41.2341 68.1593 41.507C67.8833 41.7799 67.7282 42.1509 67.7282 42.5385V44.0041C67.6892 44.4149 67.8267 44.8219 68.1057 45.1269C68.3847 45.4318 68.7797 45.6057 69.1933 45.6057C69.6078 45.6057 70.0019 45.4318 70.2809 45.1269C70.5599 44.8219 70.6974 44.4149 70.6593 44.0041V42.5385C70.6593 42.1529 70.5052 41.7838 70.2321 41.5109C69.958 41.2389 69.5864 41.0855 69.2001 41.0855Z" fill="black" stroke="black" stroke-width="0.390625"/>
<path d="M54.4697 46.9334C54.0805 46.9305 53.7059 47.082 53.4289 47.3549C53.1528 47.6278 52.9977 47.9988 52.9977 48.3864V49.8394C52.9587 50.2502 53.0962 50.6582 53.3752 50.9622C53.6542 51.2671 54.0492 51.441 54.4628 51.441C54.8774 51.441 55.2714 51.2671 55.5504 50.9622C55.8294 50.6581 55.9669 50.2502 55.9289 49.8394V48.3864C55.9318 47.9998 55.7796 47.6288 55.5046 47.3559C55.2305 47.082 54.8579 46.9305 54.4697 46.9334Z" fill="black" stroke="black" stroke-width="0.390625"/>
<path d="M61.8034 46.9334C61.0172 46.9606 60.3939 47.6035 60.3939 48.3864V49.8394C60.3559 50.2502 60.4934 50.6582 60.7724 50.9622C61.0514 51.2671 61.4464 51.441 61.86 51.441C62.2736 51.441 62.6686 51.2671 62.9476 50.9622C63.2266 50.6581 63.3641 50.2502 63.326 49.8394V48.3864C63.329 47.9998 63.1758 47.6288 62.9017 47.3559C62.6276 47.082 62.254 46.9305 61.8658 46.9334L61.8034 46.9334Z" fill="black" stroke="black" stroke-width="0.390625"/>
<path d="M69.2001 46.9334C68.8109 46.9305 68.4364 47.082 68.1593 47.3549C67.8833 47.6278 67.7282 47.9988 67.7282 48.3864V49.8394C67.6892 50.2502 67.8267 50.6582 68.1057 50.9622C68.3847 51.2671 68.7797 51.441 69.1933 51.441C69.6078 51.441 70.0019 51.2671 70.2809 50.9622C70.5599 50.6581 70.6974 50.2502 70.6593 49.8394V48.3864C70.6623 47.9998 70.5101 47.6288 70.235 47.3559C69.9609 47.082 69.5883 46.9305 69.2001 46.9334Z" fill="black" stroke="black" stroke-width="0.390625"/>
<path d="M51.5869 22.0942V30.8628L72.0679 30.8638V22.0952L51.5869 22.0942ZM69.2001 27.944L54.4683 27.945V25.0254H69.2001V27.944Z" fill="black" stroke="black" stroke-width="0.390625"/>
</svg>
