<svg width="81" height="62" viewBox="0 0 81 62" fill="none" xmlns="http://www.w3.org/2000/svg">
<path fill-rule="evenodd" clip-rule="evenodd" d="M34.0571 46.2298C30.6529 49.6151 30.6529 55.1275 34.0571 58.5127C35.7576 60.203 37.9985 61.0524 40.2346 61.0524C42.4707 61.0524 44.7077 60.2037 46.4122 58.5127C49.818 55.1275 49.818 49.6151 46.4122 46.2298C43.008 42.8445 37.4629 42.8453 34.0579 46.2298H34.0571Z" fill="black" stroke="black" stroke-width="0.390625"/>
<path fill-rule="evenodd" clip-rule="evenodd" d="M40.2922 21.6331C31.2379 21.6331 22.6851 25.5778 16.8306 32.4578C14.7542 34.8973 15.0569 38.5528 17.514 40.618C18.605 41.5406 19.944 41.988 21.2728 41.988C22.9272 41.988 24.573 41.2887 25.722 39.9386C29.3638 35.669 34.6746 33.2175 40.2968 33.2175C45.8602 33.2175 51.1286 35.622 54.7625 39.8156C56.8597 42.2384 60.5365 42.5094 62.9744 40.425C65.4123 38.3407 65.6881 34.6844 63.5871 32.2616C57.7376 25.5046 49.246 21.634 40.2922 21.634L40.2922 21.6331Z" fill="black" stroke="black" stroke-width="0.390625"/>
<path fill-rule="evenodd" clip-rule="evenodd" d="M78.7237 16.9378C68.8502 6.29904 54.843 0.195312 40.2896 0.195312C25.6639 0.195312 11.6059 6.34827 1.72527 17.0768C-0.449609 19.4345 -0.28599 23.0979 2.09002 25.2608C3.20412 26.2795 4.61377 26.7818 6.02273 26.7818C7.59615 26.7818 9.17183 26.1484 10.3169 24.9024C18.0005 16.5609 28.9221 11.7803 40.2904 11.7803C51.5991 11.7803 62.4908 16.5251 70.1621 24.7974C72.3474 27.1481 76.0282 27.2911 78.3931 25.1264C80.7517 22.9522 80.9026 19.289 78.7205 16.9383L78.7237 16.9378Z" fill="black" stroke="black" stroke-width="0.390625"/>
</svg>
