<svg width="172" height="171" viewBox="0 0 172 171" fill="none" xmlns="http://www.w3.org/2000/svg">
<path d="M159.605 88.7542H13.9723V12.0042C13.9723 7.67531 17.5154 4.13234 21.8442 4.13234C27.7477 4.13234 33.0626 6.49441 37.1946 10.4296L38.7693 12.0043L34.6373 16.1363V19.8762C34.6373 24.7958 36.6057 29.52 40.147 33.0614L41.5249 34.4393L63.96 12.0041L62.5822 10.6263C59.0406 7.08469 54.3181 5.11648 49.397 5.11648H45.6571L41.5251 9.24851L39.9504 7.67383C35.0309 2.7543 28.5352 0.195312 21.8441 0.195312C15.35 0.195312 10.0355 5.50859 10.0355 12.0039V88.9531C4.52578 89.9373 0.195312 94.6598 0.195312 100.565C0.195312 106.666 4.72109 111.587 10.6262 112.177L22.6332 148.782C24.2079 153.504 28.7336 156.654 33.6547 156.654H38.7711L34.6391 168.854L38.379 170.035L42.9048 156.653H128.709L133.235 170.035L136.975 168.854L132.842 156.654H137.958C143.074 156.654 147.405 153.504 148.979 148.782L161.18 112.374C167.084 111.587 171.611 106.668 171.611 100.762C171.414 94.0711 166.101 88.7566 159.606 88.7566L159.605 88.7542ZM47.2302 9.05109H49.3954C52.7416 9.05109 55.8895 10.0353 58.4485 12.0037L41.5235 28.7318C39.5551 26.1729 38.5709 23.0252 38.5709 19.6787V17.5134L47.2302 9.05109ZM145.238 147.403C144.254 150.552 141.301 152.716 137.956 152.716H33.6516C30.3054 152.716 27.3544 150.551 26.37 147.403L14.7579 112.371H156.848L145.238 147.403ZM159.604 108.436H12.0024C7.67351 108.436 4.13054 104.893 4.13054 100.564C4.13054 96.2355 7.67363 92.6925 12.0024 92.6925H159.604C163.933 92.6925 167.476 96.2356 167.476 100.564C167.476 104.893 163.934 108.436 159.604 108.436Z" fill="black" stroke="black" stroke-width="0.390625"/>
<path d="M64.4256 76.7581L49.6963 42.3909L53.3141 40.8406L68.0434 75.2078L64.4256 76.7581Z" fill="black" stroke="black" stroke-width="0.390625"/>
<path d="M62.851 30.8088L87.4116 75.0237L83.9707 76.9356L59.4102 32.7208L62.851 30.8088Z" fill="black" stroke="black" stroke-width="0.390625"/>
<path d="M72.8359 20.8206L107.281 74.9495L103.961 77.0628L69.5156 22.9339L72.8359 20.8206Z" fill="black" stroke="black" stroke-width="0.390625"/>
</svg>
