<svg width="113" height="96" viewBox="0 0 113 96" fill="none" xmlns="http://www.w3.org/2000/svg">
<path fill-rule="evenodd" clip-rule="evenodd" d="M30.3901 25.3847C29.583 25.3847 28.9287 24.7332 28.9287 23.9262V6.77166C28.9287 5.9656 29.5821 5.31128 30.3891 5.31128C31.1961 5.31128 31.8495 5.9656 31.8495 6.77166V23.9262C31.8495 24.7323 31.1952 25.3847 30.3891 25.3847H30.3901Z" fill="black" stroke="black" stroke-width="0.390625"/>
<path fill-rule="evenodd" clip-rule="evenodd" d="M34.6997 16.1458H30.3891C29.5821 16.1458 28.9277 15.4915 28.9277 14.6855C28.9277 13.8794 29.5821 13.2251 30.3881 13.2251H34.6998C36.2723 13.2251 37.5501 12.1068 37.5501 10.7295C37.5501 9.35516 36.2714 8.234 34.6998 8.234H30.3891C29.5821 8.234 28.9278 7.58258 28.9278 6.77362C28.9278 5.96755 29.5821 5.31323 30.3881 5.31323H34.6998C37.8824 5.31323 40.4717 7.74496 40.4717 10.7306C40.4717 13.718 37.8824 16.148 34.6998 16.148L34.6997 16.1458Z" fill="black" stroke="black" stroke-width="0.390625"/>
<path fill-rule="evenodd" clip-rule="evenodd" d="M18.3005 87.4045H18.2976C12.7771 87.4016 7.25228 87.3997 1.72874 87.3997C0.922673 87.3997 0.268355 86.7483 0.268355 85.9393C0.268355 84.9525 0.250961 83.9435 0.230665 82.9672C0.0808556 75.1075 -0.0892591 66.1984 10.9994 64.5852C26.4036 61.8509 36.368 58.0527 44.3747 55.0014C62.5133 48.0851 71.6188 44.6135 111.209 63.7841C111.714 64.0276 112.034 64.537 112.034 65.0975C112.034 65.9017 112.065 67.0886 112.098 68.463C112.225 73.6523 112.296 78.105 111.865 80.0149C111.376 82.2059 109.138 87.3013 99.0112 87.3013L94.0966 87.3245H94.0888C93.2857 87.3245 92.6304 86.675 92.6275 85.869C92.6256 85.0629 93.277 84.4056 94.083 84.4028L99.0036 84.3796C106.739 84.3796 108.595 81.2452 109.013 79.3759C109.398 77.6584 109.264 72.1686 109.175 68.5337C109.152 67.5903 109.132 66.7331 109.122 66.0178C71.3672 47.8387 63.1848 50.9558 45.4147 57.73C37.2892 60.8295 27.1776 64.6839 11.4876 67.4667C11.4721 67.4696 11.4576 67.4716 11.4422 67.4745C3.29641 68.6517 2.98713 74.1067 3.15439 82.9116C3.16502 83.4268 3.17469 83.9516 3.18242 84.4793C8.22175 84.4822 13.2611 84.4822 18.3024 84.4842C19.1085 84.4842 19.7628 85.1385 19.7628 85.9445C19.7628 86.7506 19.1085 87.4049 18.3024 87.4049L18.3005 87.4045ZM41.95 87.4094H35.0666C34.2606 87.4094 33.6062 86.7551 33.6062 85.949C33.6062 85.1429 34.2606 84.4886 35.0666 84.4886C47.6534 84.4915 62.5161 84.4886 77.3196 84.4558H77.3215C78.1285 84.4558 78.7819 85.1072 78.7819 85.9113C78.7848 86.7203 78.1324 87.3746 77.3263 87.3775C65.1406 87.4055 52.9133 87.4104 41.9494 87.4104L41.95 87.4094Z" fill="black" stroke="black" stroke-width="0.390625"/>
<path fill-rule="evenodd" clip-rule="evenodd" d="M45.2677 64.8962L90.8238 64.9493C86.2967 62.91 81.0119 60.7973 75.8911 59.5069C73.1192 58.8091 70.644 58.4293 68.331 58.3452C65.8103 58.2534 63.3835 58.5047 60.9026 59.1136C56.4595 60.199 51.795 62.1592 47.2864 64.0515C46.6167 64.3327 45.9449 64.614 45.2684 64.8962L45.2677 64.8962ZM97.3336 67.8789L37.4763 67.8103C36.761 67.8103 36.1521 67.2932 36.0362 66.5876C35.9202 65.885 36.33 65.1978 37.0046 64.9668C40.0153 63.9346 43.1371 62.6259 46.1544 61.3578C50.7704 59.42 55.5413 57.4163 60.2075 56.276C62.9544 55.6013 65.6452 55.3249 68.4344 55.4264C70.9579 55.5153 73.6313 55.9261 76.6062 56.6742C84.4426 58.6497 92.5585 62.4335 97.9806 65.1069C98.5895 65.4085 98.9113 66.0889 98.7567 66.75C98.602 67.4121 98.0134 67.8789 97.334 67.8789L97.3336 67.8789Z" fill="black" stroke="black" stroke-width="0.390625"/>
<path fill-rule="evenodd" clip-rule="evenodd" d="M68.4731 67.848C67.667 67.848 67.0117 67.1936 67.0117 66.3876V56.8869C67.0117 56.0808 67.666 55.4265 68.4721 55.4265C69.2791 55.4265 69.9325 56.0808 69.9325 56.8869V66.3876C69.9325 67.1936 69.2782 67.848 68.4721 67.848H68.4731Z" fill="black" stroke="black" stroke-width="0.390625"/>
<path fill-rule="evenodd" clip-rule="evenodd" d="M6.27567 76.3816C4.82204 76.3816 3.29022 76.1564 1.68294 75.707C0.906842 75.4915 0.452568 74.6854 0.67102 73.9093C0.886551 73.1303 1.69262 72.677 2.46872 72.8944C5.80402 73.8252 8.68728 73.5942 11.0435 72.2043C15.2112 69.7465 16.5139 64.4211 16.5265 64.3679C16.714 63.584 17.5007 63.0969 18.2836 63.2796C19.0675 63.4652 19.5546 64.2461 19.3719 65.0319C19.311 65.2986 17.7945 71.5983 12.5503 74.7074C10.6714 75.8238 8.57124 76.3814 6.27686 76.3814L6.27567 76.3816Z" fill="black" stroke="black" stroke-width="0.390625"/>
<path fill-rule="evenodd" clip-rule="evenodd" d="M26.6808 79.0217C22.864 79.0217 19.7595 82.1281 19.7595 85.9457C19.7595 89.7625 22.864 92.8696 26.6808 92.8696C30.5005 92.8696 33.6047 89.7632 33.6047 85.9457C33.6047 82.1289 30.5003 79.0217 26.6817 79.0217H26.6808ZM26.6808 95.7905C21.2537 95.7905 16.8379 91.3727 16.8379 85.9457C16.8379 80.5186 21.253 76.1008 26.6808 76.1008C32.1115 76.1008 36.5256 80.5186 36.5256 85.9457C36.5256 91.3727 32.1105 95.7905 26.6808 95.7905Z" fill="black" stroke="black" stroke-width="0.390625"/>
<path fill-rule="evenodd" clip-rule="evenodd" d="M85.7044 84.3933C84.8472 84.3933 84.1522 85.0911 84.1522 85.9455C84.1532 86.7999 84.8472 87.4977 85.7044 87.4977C86.5588 87.4977 87.2566 86.7999 87.2566 85.9455C87.2576 85.0911 86.5588 84.3933 85.7044 84.3933ZM85.7044 90.4194C83.2369 90.4194 81.2305 88.4129 81.2305 85.9454C81.2314 83.4779 83.237 81.4714 85.7044 81.4714C88.17 81.4714 90.1784 83.4779 90.1784 85.9454C90.1794 88.4129 88.17 90.4194 85.7044 90.4194Z" fill="black" stroke="black" stroke-width="0.390625"/>
<path fill-rule="evenodd" clip-rule="evenodd" d="M26.681 84.3933C25.8266 84.3933 25.1307 85.0911 25.1307 85.9455C25.1307 86.7999 25.8256 87.4977 26.68 87.4977C27.5373 87.4977 28.2322 86.7999 28.2322 85.9455C28.2322 85.0911 27.5373 84.3933 26.68 84.3933H26.681ZM26.681 90.4194C24.2154 90.4194 22.21 88.4129 22.21 85.9454C22.21 83.4779 24.2164 81.4714 26.681 81.4714C29.1485 81.4714 31.1549 83.4779 31.1549 85.9454C31.1549 88.4129 29.1484 90.4194 26.6819 90.4194H26.681Z" fill="black" stroke="black" stroke-width="0.390625"/>
<path fill-rule="evenodd" clip-rule="evenodd" d="M85.7042 79.0217C81.8874 79.0217 78.7802 82.1281 78.7802 85.9457C78.7802 89.7625 81.8867 92.8696 85.7042 92.8696C89.521 92.8696 92.6255 89.7632 92.6255 85.9457C92.6255 82.1289 89.521 79.0217 85.7042 79.0217ZM85.7042 95.7905C80.2745 95.7905 75.8594 91.3727 75.8594 85.9457C75.8594 80.5186 80.2745 76.1008 85.7042 76.1008C91.1323 76.1008 95.5471 80.5186 95.5471 85.9457C95.5471 91.3727 91.132 95.7905 85.7042 95.7905Z" fill="black" stroke="black" stroke-width="0.390625"/>
<path fill-rule="evenodd" clip-rule="evenodd" d="M110.675 78.8981H103.523C102.717 78.8981 102.062 78.2438 102.062 77.4377V70.3388C102.062 69.5327 102.716 68.8784 103.522 68.8784H110.677C111.483 68.8784 112.137 69.5327 112.137 70.3398C112.137 71.1458 111.483 71.8002 110.677 71.8002H104.983V75.9774H110.674C111.481 75.9774 112.134 76.6318 112.134 77.4378C112.134 78.2439 111.48 78.8982 110.674 78.8982L110.675 78.8981Z" fill="black" stroke="black" stroke-width="0.390625"/>
<path fill-rule="evenodd" clip-rule="evenodd" d="M37.9981 60.3931C37.1921 60.3931 36.5368 59.7387 36.5368 58.9327V29.0436C36.5368 28.2375 37.1911 27.5832 37.9972 27.5832C38.8032 27.5832 39.4575 28.2375 39.4575 29.0436V58.9327C39.4575 59.7387 38.8032 60.3931 37.9972 60.3931H37.9981ZM31.4047 62.6073C30.5977 62.6073 29.9434 61.953 29.9434 61.1469L29.9443 29.0434C29.9443 28.2373 30.5977 27.583 31.4047 27.583C32.2117 27.583 32.8651 28.2373 32.8651 29.0434L32.8661 61.1469C32.8661 61.953 32.2108 62.6083 31.4057 62.6073H31.4047Z" fill="black" stroke="black" stroke-width="0.390625"/>
<path fill-rule="evenodd" clip-rule="evenodd" d="M19.2971 27.5843H50.1066V3.11608H19.2971V27.5843ZM51.5665 30.5062H17.8373C17.0284 30.5062 16.376 29.8518 16.376 29.0458V1.6557C16.376 0.84963 17.0274 0.195312 17.8364 0.195312H51.568C52.374 0.195312 53.0284 0.84963 53.0284 1.6557V29.0458C53.0284 29.8518 52.374 30.5062 51.568 30.5062H51.5665Z" fill="black" stroke="black" stroke-width="0.390625"/>
</svg>
