<svg width="69" height="91" viewBox="0 0 69 91" fill="none" xmlns="http://www.w3.org/2000/svg">
<path d="M30.3529 39.9884C30.8196 40.3566 31.5235 40.3011 31.9223 39.8792C32.3211 39.4603 32.2715 38.8261 31.7983 38.4637C28.8514 36.1743 25.2364 37.431 23.7381 38.4111C23.2412 38.7375 23.1291 39.3658 23.4945 39.8188C23.7112 40.0867 24.0474 40.2319 24.3967 40.2319C24.6219 40.2319 24.8537 40.1676 25.0488 40.039C25.0768 40.0215 27.9805 38.1481 30.3529 39.9884Z" fill="black" stroke="black" stroke-width="0.390625"/>
<path d="M38.2283 39.9885C40.5575 38.1823 43.3868 39.9466 43.5325 40.0411C43.7276 40.1697 43.9561 40.234 44.1814 40.234C44.5274 40.234 44.8669 40.0859 45.0868 39.821C45.4479 39.3689 45.3369 38.7406 44.8367 38.4132C43.3385 37.4303 39.7245 36.1735 36.7732 38.4658C36.3097 38.8292 36.2515 39.4595 36.6557 39.8814C37.0545 40.3013 37.7584 40.3538 38.2283 39.9885Z" fill="black" stroke="black" stroke-width="0.390625"/>
<path d="M33.3921 70.9787C26.1111 68.29 22.4991 65.5922 20.7726 63.7723C23.3703 63.5463 25.1746 63.144 26.275 62.1503C27.5598 60.9939 28.283 58.7884 28.6872 56.9598C30.4484 57.6973 32.3326 58.1103 34.3157 58.1103C36.2806 58.1103 38.1561 57.6914 39.8977 56.9656C40.2319 58.4708 40.787 60.2215 41.6988 61.4441C43.1292 59.5814 44.124 58.158 44.5994 57.4654C44.3364 56.6023 44.1241 55.5579 43.9786 54.5165C48.2663 51.096 51.2844 45.6706 52.2824 40.1868C53.9229 38.6144 58.5814 33.6109 58.825 26.8088C58.9986 21.961 56.9065 17.3152 52.6036 12.9926C52.415 11.2478 51.5753 7.22423 47.7663 4.11073C43.8246 0.896722 37.9923 -0.351272 30.4235 0.413635C22.1941 1.25147 16.5309 3.80297 13.5961 8.00859C10.0995 13.018 11.6344 18.7894 12.5301 21.2043C11.8963 22.31 11.3897 23.4577 11.1062 24.653C9.36441 31.907 14.647 38.2989 16.3177 40.0993C17.2943 45.6337 20.3243 51.0611 24.6097 54.4846C24.3219 56.6211 23.6612 58.8179 23.1859 59.2594C22.4379 59.7114 19.0555 59.876 16.8157 59.9881C14.6503 60.0913 12.4105 60.2034 10.4144 60.5073C3.25317 61.5819 0.195312 65.7095 0.195312 74.3178V78.8479L0.278307 79.3896C0.4637 80.0062 1.79485 83.3742 8.51429 86.1408C9.03059 85.9762 9.70101 85.7862 10.5568 85.5572C19.2249 83.4939 27.27 77.1605 33.3923 70.9791L33.3921 70.9787ZM50.7476 35.5391C49.6288 33.654 48.4032 32.0543 47.294 30.7751H48.36C49.5899 30.7751 50.5869 29.873 50.5869 28.7624C50.5869 27.6508 49.592 26.7438 48.36 26.7438H34.3165C32.0767 26.7438 29.4262 27.1091 26.8438 27.8826C28.9477 25.6039 33.3712 23.1782 38.8305 22.7173C45.0486 22.1981 48.7165 19.3749 50.6685 17.1974C53.2262 20.2525 54.4874 23.4159 54.3817 26.6434C54.2502 30.3961 52.323 33.5622 50.7471 35.5389L50.7476 35.5391ZM15.4643 25.4813C16.5389 21.0448 21.1209 17.2971 29.0721 14.3462C30.2125 13.9214 30.7525 12.7465 30.2858 11.7187C29.8223 10.688 28.5159 10.2 27.3821 10.6237C22.5285 12.4221 18.7441 14.5605 16.0044 16.9951C15.6983 14.9454 15.8039 12.391 17.3636 10.1514C19.5387 7.03489 24.1013 5.10304 30.9198 4.41619C37.1326 3.78783 41.7813 4.67826 44.7412 7.06307C47.5372 9.31936 48.0686 12.3571 48.1699 13.4013C47.4531 14.5655 44.7379 18.1848 38.4207 18.7117C32.3005 19.2174 26.2927 21.9315 23.1129 25.6199C21.6858 27.278 20.9442 29.0122 20.8699 30.7071C19.4514 31.7261 18.241 32.9488 17.4163 34.4296C15.9806 32.1052 14.6514 28.8435 15.4643 25.4813ZM20.6703 39.0853C20.8061 32.8172 29.8946 30.7733 34.3159 30.7733H41.3466C42.6066 31.9015 45.767 35.0286 47.8956 39.4966C46.5644 46.7144 40.9228 54.0777 34.3178 54.0777C27.494 54.0767 21.859 46.4291 20.67 39.0856L20.6703 39.0853Z" fill="black" stroke="black" stroke-width="0.390625"/>
<path d="M58.1615 60.504C56.1653 60.202 53.9201 60.091 51.7579 59.9848C50.3276 59.9146 48.4305 59.8201 47.0649 59.6526C43.4941 64.7817 30.2999 82.3449 13.8594 87.8596C18.7378 89.0716 25.3331 89.923 34.2857 89.923C64.1966 89.923 67.9631 80.4653 68.2942 79.3879L68.3751 74.3171C68.3772 65.7088 65.3194 61.5793 58.1612 60.5036L58.1615 60.504Z" fill="black" stroke="black" stroke-width="0.390625"/>
</svg>
