<svg width="200" height="200" viewBox="0 0 200 200" fill="none" xmlns="http://www.w3.org/2000/svg">
<g clip-path="url(#clip0_180_1281)">
<path d="M187.499 0.404785H12.5006C5.62599 0.404785 0 9.17887 0 19.9003V97.8797C0 108.601 5.62599 117.375 12.5006 117.375H187.499C194.374 117.375 200 108.601 200 97.8797L199.998 19.9003C199.998 9.17887 194.374 0.404785 187.499 0.404785ZM158.332 75.1335C158.332 67.9846 162.083 62.1387 166.664 62.1387C171.248 62.1387 174.997 67.988 174.997 75.1335C174.997 82.2824 171.246 88.1283 166.664 88.1283C162.083 88.1315 158.332 82.2822 158.332 75.1335ZM166.664 55.6413C162.081 55.6413 158.332 49.792 158.332 42.6465C158.332 35.4977 162.083 29.6517 166.664 29.6517C171.248 29.6517 174.997 35.501 174.997 42.6465C174.999 49.7921 171.248 55.6413 166.664 55.6413ZM129.164 45.8932C129.164 49.4659 127.289 52.3906 124.998 52.3906H74.9972C72.7063 52.3906 70.831 49.4659 70.831 45.8932C70.831 42.3204 72.7063 39.3957 74.9972 39.3957H124.998C127.289 39.3957 129.164 42.3204 129.164 45.8932ZM144.123 104.377L137.706 94.3681C133.79 88.2609 128.54 84.8817 122.958 84.8817H72.8721C67.2895 84.8817 62.0377 88.261 58.1219 94.3681L51.7062 104.377H39.9149L52.2482 85.2069C57.7482 76.6293 65.0817 71.886 72.8726 71.886H122.956C130.747 71.886 138.08 76.6294 143.58 85.2069L155.916 104.377H144.123Z" fill="black" stroke="black" stroke-width="0.390625"/>
<path d="M70.9367 146.722C69.3095 144.184 66.6733 144.184 65.0439 146.722C61.6303 152.042 56.6121 165.46 62.0376 178.151C64.7875 184.588 63.0839 188.399 62.5587 189.309C60.9315 191.846 60.9315 195.958 62.5587 198.502C63.3733 199.773 64.4381 200.405 65.505 200.405C66.5719 200.405 67.6367 199.769 68.4513 198.505C71.0068 194.523 74.3996 183.64 68.9723 170.945C66.0012 163.999 70.705 156.289 70.9531 155.893C72.5638 153.349 72.5598 149.253 70.9367 146.722Z" fill="black" stroke="black" stroke-width="0.390625"/>
<path d="M105.691 146.722C104.064 144.184 101.428 144.184 99.7985 146.722C96.3849 152.042 91.3667 165.46 96.7963 178.151C99.5462 184.588 97.8384 188.399 97.3174 189.312C95.6902 191.85 95.6902 195.961 97.3174 198.502C98.132 199.773 99.1968 200.405 100.264 200.405C101.331 200.405 102.395 199.769 103.21 198.502C105.761 194.523 109.154 183.64 103.731 170.942C100.76 163.999 105.46 156.289 105.708 155.893C107.318 153.349 107.314 149.254 105.691 146.723L105.691 146.722Z" fill="black" stroke="black" stroke-width="0.390625"/>
<path d="M140.444 146.722C138.817 144.184 136.181 144.184 134.552 146.722C131.142 152.042 126.124 165.46 131.549 178.151C134.299 184.588 132.592 188.399 132.07 189.312C130.443 191.85 130.443 195.961 132.07 198.502C132.885 199.773 133.95 200.405 135.017 200.405C136.084 200.405 137.148 199.769 137.963 198.502C140.515 194.523 143.907 183.64 138.484 170.945C135.501 163.97 140.254 156.225 140.461 155.886C142.071 153.342 142.063 149.247 140.444 146.722Z" fill="black" stroke="black" stroke-width="0.390625"/>
</g>
<defs>
<clipPath id="clip0_180_1281">
<rect width="200" height="200" fill="white"/>
</clipPath>
</defs>
</svg>
