<svg width="75" height="75" viewBox="0 0 75 75" fill="none" xmlns="http://www.w3.org/2000/svg">
<path d="M72.9639 19.0412H61.8637V14.3793C61.8637 9.31183 59.1606 4.62933 54.7721 2.09561C50.3836 -0.438119 44.9766 -0.438119 40.5887 2.09561C36.2002 4.62933 33.4971 9.31183 33.4971 14.3793C33.4971 15.9215 34.3198 17.3461 35.6548 18.1172C36.9905 18.8883 38.6361 18.8883 39.9718 18.1172C41.3075 17.3461 42.1302 15.9215 42.1302 14.3793C42.1302 12.3964 43.1878 10.5642 44.9049 9.57269C46.6221 8.58124 48.7378 8.58124 50.4549 9.57269C52.1721 10.5642 53.2303 12.3964 53.2303 14.3793V19.0412H29.7967V14.3793C29.7464 10.6648 28.2248 7.12163 25.5658 4.52728C22.9067 1.93292 19.3278 0.499404 15.6126 0.540825C11.8981 0.499513 8.31915 1.93299 5.66011 4.52728C3.00106 7.12156 1.47942 10.6646 1.42919 14.3793C1.42919 15.9215 2.25196 17.3461 3.58765 18.1172C4.92336 18.8883 6.5689 18.8883 7.90459 18.1172C9.24028 17.3461 10.0631 15.9215 10.0631 14.3793C10.0631 12.3964 11.1206 10.5642 12.8377 9.57269C14.5549 8.58124 16.6707 8.58124 18.3878 9.57269C20.1049 10.5642 21.1624 12.3964 21.1624 14.3793V19.0412H1.42848C0.747538 19.0412 0.195354 19.5933 0.195354 20.2743V68.3754C0.189846 69.0487 0.730336 69.6002 1.4037 69.6085C3.47545 69.5961 4.45034 70.5456 5.68345 71.7298C7.15962 73.4971 9.338 74.5258 11.6405 74.5417C13.9001 74.543 16.0552 73.5888 17.5734 71.915C18.6405 70.6551 20.2083 69.9293 21.8593 69.9293C23.5096 69.9293 25.0774 70.655 26.1445 71.915C27.664 73.5867 29.8184 74.5397 32.0774 74.5397C34.3363 74.5397 36.49 73.5868 38.0095 71.915C39.0767 70.6551 40.6444 69.9293 42.2955 69.9293C43.9465 69.9293 45.5136 70.655 46.5814 71.915C48.1002 73.5867 50.2546 74.5397 52.5135 74.5397C54.7725 74.5397 56.9262 73.5868 58.4457 71.915C59.5129 70.6551 61.0806 69.9293 62.7316 69.9293C64.3827 69.9293 65.9498 70.655 67.0176 71.915C68.5454 73.5888 70.7081 74.5424 72.9746 74.5417C73.6507 74.5348 74.1953 73.9846 74.1953 73.3085V20.2739C74.1953 19.9469 74.0659 19.6329 73.8345 19.4016C73.6032 19.1709 73.2892 19.0408 72.9622 19.0408L72.9639 19.0412ZM2.663 47.2849C3.83415 47.561 4.90343 48.1641 5.74612 49.0241C7.31663 50.5794 9.43717 51.4517 11.6473 51.4517C13.8581 51.4517 15.9787 50.5794 17.5491 49.0241C18.374 48.1882 19.4096 47.592 20.5462 47.2973C20.7438 47.2601 20.9408 47.2236 21.1632 47.1988H21.1625C21.3917 47.1727 21.6224 47.161 21.8537 47.1617C22.2421 47.1603 22.6297 47.1933 23.0125 47.2601C23.2232 47.2932 23.4297 47.3469 23.6294 47.4205C24.5823 47.7655 25.4484 48.3129 26.17 49.0241C26.232 49.0737 26.2809 49.1226 26.3428 49.1721C26.6513 49.431 26.9721 49.6899 27.3295 49.9495V49.9488C27.662 50.1829 28.0083 50.397 28.3657 50.5905C28.8091 50.8239 29.2766 51.0098 29.7592 51.1454C30.5131 51.3595 31.2939 51.4635 32.0781 51.4538C34.2882 51.4621 36.4109 50.5877 37.9731 49.0241C39.094 47.8351 40.6563 47.1618 42.29 47.1618C43.9238 47.1618 45.4854 47.8351 46.6062 49.0241C48.174 50.5877 50.3001 51.4621 52.5144 51.4538C52.7857 51.4538 53.057 51.4415 53.3159 51.4167C53.5809 51.3974 53.844 51.3643 54.1056 51.3182C54.6605 51.2204 55.2031 51.0593 55.7209 50.8369C56.2985 50.5794 56.8445 50.2565 57.3492 49.8751H57.3616C57.7437 49.5914 58.0893 49.3078 58.4226 49.0241C58.4721 48.9869 58.521 48.938 58.5706 48.9009C58.8543 48.6668 59.1255 48.432 59.3968 48.2351L59.3961 48.2344C59.9449 47.8116 60.5749 47.5053 61.2461 47.3345C61.4492 47.2835 61.6551 47.2464 61.8631 47.2236C62.1536 47.183 62.4455 47.1624 62.7388 47.1617C64.3747 47.152 65.9404 47.8268 67.0558 49.024C68.3323 50.2716 69.9662 51.0903 71.7302 51.367V60.536C70.5625 60.2496 69.4959 59.6485 68.6463 58.7969C67.0765 57.2374 64.9539 56.3624 62.741 56.3624C60.5287 56.3624 58.406 57.2375 56.8363 58.7969C55.7133 59.9825 54.1524 60.6545 52.5193 60.6545C50.8863 60.6545 49.3254 59.9825 48.2024 58.7969C46.634 57.2374 44.5119 56.3624 42.2998 56.3624C40.0878 56.3624 37.9656 57.2375 36.3973 58.7969C35.2743 59.9832 33.7134 60.6552 32.0803 60.6552C30.4473 60.6552 28.8864 59.9832 27.7641 58.7969C26.195 57.2381 24.0736 56.3624 21.8615 56.3624C19.65 56.3624 17.528 57.2382 15.9597 58.7969C14.8381 59.9825 13.2786 60.6545 11.6468 60.6545C10.0143 60.6545 8.45493 59.9825 7.33322 58.7969C6.0574 57.5493 4.42564 56.7293 2.66305 56.4498L2.663 47.2849ZM52.7118 48.9745H52.7111C52.6464 48.9855 52.5803 48.9897 52.5142 48.9869C50.8783 48.9965 49.3126 48.3218 48.1972 47.1246C46.6267 45.5692 44.5062 44.6969 42.2961 44.6969C40.086 44.6969 37.9647 45.5693 36.3942 47.1246C35.2788 48.3219 33.7138 48.9966 32.078 48.9869C31.2945 49.0041 30.5157 48.8526 29.7963 48.5428V42.4749H53.2299V48.938V48.9373C53.0585 48.9628 52.885 48.9752 52.7115 48.9745L52.7118 48.9745ZM53.2295 40.008H29.7959V37.5418H53.2295V40.008ZM53.2295 35.0749H29.7959V32.608H53.2295V35.0749ZM53.2295 30.1418H29.7959V27.6748H53.2295V30.1418ZM71.7297 21.5086V48.8763C70.5585 48.5906 69.4914 47.984 68.6459 47.1248C67.0802 45.5591 64.9527 44.6839 62.7384 44.695C62.4299 44.695 62.1338 44.7074 61.8626 44.7322V21.5083L71.7297 21.5086ZM47.6791 6.56023C45.5806 6.5382 43.5591 7.34927 42.0561 8.81441C40.5538 10.2803 39.6932 12.2811 39.6622 14.3796C39.6622 15.4014 38.8339 16.2296 37.8121 16.2296C36.7904 16.2296 35.9621 15.4014 35.9621 14.3796C35.9621 10.1935 38.1957 6.32546 41.8206 4.23238C45.4456 2.1393 49.912 2.1393 53.5378 4.23238C57.1628 6.32546 59.3956 10.1935 59.3956 14.3796V45.3853C59.1739 45.4838 58.9763 45.5953 58.7787 45.7062H58.7794C58.0867 46.1165 57.434 46.5916 56.8301 47.1245C56.4707 47.4474 56.0914 47.7476 55.6955 48.0251V14.379C55.6652 12.2805 54.8038 10.2796 53.3015 8.81381C51.7992 7.34866 49.7777 6.5376 47.6792 6.55963L47.6791 6.56023ZM53.2292 21.5079V25.2079H29.7955V21.5079H53.2292ZM15.612 6.56023C13.5134 6.5382 11.4919 7.34927 9.98965 8.81441C8.48732 10.2803 7.62672 12.2811 7.5957 14.3796C7.5957 15.4014 6.76742 16.2296 5.74568 16.2296C4.72394 16.2296 3.89567 15.4014 3.89567 14.3796C3.93767 11.3109 5.19489 8.38469 7.39124 6.24138C9.5876 4.09807 12.544 2.91308 15.6121 2.94622C18.6808 2.91317 21.6374 4.0981 23.8337 6.24138C26.0301 8.38469 27.2874 11.3109 27.3293 14.3796V46.7672C27.1317 46.6068 26.9224 46.4464 26.7124 46.2983C25.8118 45.5857 24.7551 45.0955 23.6293 44.8676V14.3801C23.5983 12.2815 22.7377 10.2806 21.2353 8.81487C19.733 7.34971 17.7116 6.53866 15.6123 6.56069L15.612 6.56023ZM2.66238 21.5079H21.1625V44.7194C20.9408 44.7442 20.7432 44.769 20.5456 44.7931L20.5463 44.7938C18.814 45.0823 17.2126 45.8954 15.9581 47.1245C14.8372 48.3135 13.2756 48.9868 11.6412 48.9868C10.0073 48.9868 8.44578 48.3135 7.32495 47.1245C6.05119 45.8796 4.42214 45.061 2.66307 44.7815L2.66238 21.5079ZM68.6714 70.0902C67.1505 68.4164 64.9941 67.4629 62.7331 67.4629C60.472 67.4629 58.3157 68.4165 56.7947 70.0902C55.7296 71.3495 54.1639 72.0759 52.515 72.0759C50.8653 72.0759 49.3004 71.3495 48.2352 70.0902C46.7143 68.4164 44.5579 67.4629 42.2969 67.4629C40.0351 67.4629 37.8795 68.4165 36.3585 70.0902C35.2934 71.3495 33.7277 72.0759 32.0788 72.0759C30.4291 72.0759 28.8635 71.3495 27.799 70.0902C26.2781 68.4164 24.1217 67.4629 21.8607 67.4629C19.5989 67.4629 17.4426 68.4165 15.9216 70.0902C14.8524 71.3433 13.2894 72.0683 11.6419 72.0759C9.98052 72.0442 8.42165 71.2648 7.39934 69.9546C6.16966 68.5418 4.5027 67.582 2.66379 67.2288V58.9481C3.83082 59.2346 4.89805 59.8356 5.74692 60.6873C7.31465 62.2461 9.43602 63.1218 11.6475 63.1218C13.8584 63.1218 15.9796 62.246 17.5475 60.6873C18.6697 59.4996 20.2307 58.8269 21.8644 58.8269C23.4975 58.8269 25.0591 59.4996 26.1813 60.6873C27.7498 62.2461 29.8724 63.1218 32.0846 63.1218C34.2968 63.1218 36.4188 62.246 37.9879 60.6873C39.1102 59.501 40.6718 58.829 42.3041 58.829C43.9373 58.829 45.4988 59.501 46.621 60.6873C48.1902 62.2461 50.3121 63.1218 52.5243 63.1218C54.7365 63.1218 56.8592 62.246 58.4276 60.6873C59.5512 59.5031 61.112 58.8325 62.7445 58.8325C64.377 58.8325 65.9378 59.5032 67.0615 60.6873C68.3366 61.9349 69.9683 62.7548 71.7309 63.0337V71.9527C70.5549 71.634 69.4945 70.9881 68.6719 70.0904L68.6714 70.0902Z" fill="black" stroke="black" stroke-width="0.390625"/>
</svg>
