<svg width="44" height="44" viewBox="0 0 44 44" fill="none" xmlns="http://www.w3.org/2000/svg">
<path d="M41.7762 31.8402V37.8402C41.7785 38.3972 41.6644 38.9485 41.4413 39.4589C41.2181 39.9692 40.8908 40.4274 40.4804 40.8039C40.0699 41.1805 39.5854 41.4672 39.0577 41.6456C38.5301 41.8241 37.971 41.8903 37.4162 41.8402C31.2619 41.1715 25.3502 39.0685 20.1562 35.7002C15.3239 32.6295 11.2269 28.5325 8.15623 23.7002C4.77619 18.4826 2.67272 12.5422 2.01623 6.36019C1.96625 5.80713 2.03198 5.24971 2.20923 4.72344C2.38649 4.19717 2.67138 3.71357 3.04577 3.30344C3.42016 2.8933 3.87584 2.56561 4.38382 2.34124C4.89179 2.11686 5.44091 2.00072 5.99623 2.00019H11.9962C12.9668 1.99064 13.9078 2.33435 14.6438 2.96726C15.3797 3.60017 15.8604 4.47909 15.9962 5.44019C16.2495 7.36033 16.7191 9.24565 17.3962 11.0602C17.6653 11.776 17.7236 12.554 17.564 13.302C17.4045 14.0499 17.034 14.7364 16.4962 15.2802L13.9562 17.8202C16.8033 22.8273 20.9491 26.9731 25.9562 29.8202L28.4962 27.2802C29.04 26.7425 29.7265 26.3719 30.4745 26.2124C31.2224 26.0529 32.0004 26.1111 32.7162 26.3802C34.5308 27.0573 36.4161 27.5269 38.3362 27.7802C39.3078 27.9173 40.195 28.4066 40.8293 29.1552C41.4636 29.9038 41.8006 30.8593 41.7762 31.8402Z" fill="black" stroke="black" stroke-width="4" stroke-linecap="round" stroke-linejoin="round"/>
</svg>
