<svg width="188" height="188" viewBox="0 0 188 188" fill="none" xmlns="http://www.w3.org/2000/svg">
<path d="M135.789 82.8017C136.773 82.408 137.167 81.227 136.576 80.4396C135.592 78.4712 135.002 76.6997 135.002 74.9298C135.002 73.3552 135.789 71.5836 136.773 69.6166L138.348 66.4672C138.939 65.2861 139.332 63.7114 139.529 62.3351C139.726 59.1857 138.545 56.4316 136.38 54.2664C135.789 53.6759 135.002 53.6759 134.214 54.0695C133.427 54.4632 133.033 55.6442 133.427 56.4316L133.624 56.8253C134.411 58.4 134.805 60.3684 134.411 61.7448C134.214 62.5322 134.018 63.3195 133.427 64.1069L131.852 67.2563C130.868 69.4215 129.687 72.1758 129.884 75.1282C130.081 78.0807 131.656 80.6379 133.427 82.6067C134.216 82.9988 135.002 83.1954 135.789 82.8017Z" fill="black" stroke="black" stroke-width="0.390625"/>
<path d="M145.238 82.8017C146.223 82.408 146.616 81.227 146.026 80.4396C145.042 78.4712 144.451 76.6997 144.451 74.9298C144.451 73.3552 145.238 71.5836 146.223 69.6166L147.797 66.4672C148.388 65.2861 148.781 63.7114 148.978 62.3351C149.175 59.1857 147.994 56.4316 145.829 54.2664C145.238 53.6759 144.451 53.6759 143.664 54.0695C142.876 54.4632 142.483 55.6442 142.876 56.4316L143.073 56.8253C143.86 58.4 144.254 60.3684 143.86 61.7448C143.664 62.5322 143.467 63.3195 142.876 64.1069L141.302 67.2563C140.317 69.4215 139.136 72.1758 139.333 75.1282C139.53 78.0807 141.105 80.6379 142.876 82.6067C143.664 82.9988 144.451 83.1954 145.238 82.8017Z" fill="black" stroke="black" stroke-width="0.390625"/>
<path d="M159.801 27.5009C123.394 -8.90654 63.9574 -8.90654 27.5512 27.5009C9.83867 45.2134 0.195312 68.6337 0.195312 93.6259C0.195312 118.618 9.83907 142.04 27.5512 159.751C45.8539 178.054 69.6684 187.107 93.6762 187.107C117.684 187.107 141.5 178.054 159.801 159.751C177.514 142.038 187.157 118.618 187.157 93.6259C187.156 68.6321 177.512 45.2118 159.8 27.5009H159.801ZM150.354 36.9478C165.508 52.1013 173.773 72.1759 173.773 93.6274C173.773 112.718 167.082 131.019 154.88 145.385L119.063 109.568H149.173V87.7239H97.2203L42.1148 32.6185C57.0715 20.0239 75.3746 13.7251 93.8727 13.7251C114.144 13.5283 134.806 21.4001 150.353 36.9474L150.354 36.9478ZM101.155 91.6587H128.314V105.631H115.129L101.155 91.6587ZM96.234 105.434H63.1711V91.4618H82.2613L96.234 105.434ZM132.249 105.434V91.4618H145.041V105.434H132.249ZM36.9992 150.306C7.28281 120.589 5.90469 73.3563 32.4734 41.8681L78.3289 87.7235H32.6688V109.568H100.173L145.438 154.834C113.95 181.404 66.7195 180.026 37.0008 150.308L36.9992 150.306Z" fill="black" stroke="black" stroke-width="0.390625"/>
</svg>
