<svg width="111" height="55" viewBox="0 0 111 55" fill="none" xmlns="http://www.w3.org/2000/svg">
<path d="M103.989 20.0865H101.663C100.832 16.9066 97.9979 14.5361 94.5949 14.5361C94.2869 14.5361 93.9944 14.5832 93.7018 14.6449V10.545C93.7018 7.80134 91.5001 5.57263 88.7898 5.57263C88.1426 5.57263 87.5265 5.71284 86.957 5.93163V5.16772C86.957 2.42402 84.7552 0.195312 82.0449 0.195312C79.3345 0.195312 77.1329 2.42411 77.1329 5.16772V21.8174H33.2271V5.16772C33.2271 2.42402 31.0254 0.195312 28.3151 0.195312C25.6047 0.195312 23.4031 2.42411 23.4031 5.16772V5.93163C22.8335 5.69835 22.2174 5.57263 21.5703 5.57263C18.8599 5.57263 16.6582 7.80143 16.6582 10.545V14.6449C16.3657 14.582 16.0732 14.5361 15.7651 14.5361C12.3621 14.5361 9.51334 16.9051 8.6966 20.0865H6.37067C2.9677 20.0865 0.195312 22.8931 0.195312 26.3378V28.0529C0.195312 31.4977 2.96779 34.3041 6.37067 34.3041H8.6966C9.52764 37.4841 12.3621 39.8545 15.7651 39.8545C16.0732 39.8545 16.3657 39.8074 16.6582 39.7458V43.8456C16.6582 46.5893 18.86 48.818 21.5703 48.818C22.2174 48.818 22.8335 48.6778 23.4031 48.459V49.2229C23.4031 51.9666 25.6048 54.1953 28.3151 54.1953C31.0255 54.1953 33.2271 51.9665 33.2271 49.2229V32.5578H77.1635V49.2074C77.1635 51.9511 79.3652 54.1798 82.0755 54.1798C84.7859 54.1798 86.9875 51.951 86.9875 49.2074V48.4435C87.5571 48.6768 88.1732 48.8025 88.8203 48.8025C91.5307 48.8025 93.7324 46.5737 93.7324 43.8301V39.7303C94.0249 39.7931 94.3175 39.8391 94.6255 39.8391C98.0285 39.8391 100.877 37.4701 101.694 34.2887H104.02C107.423 34.2887 110.195 31.4821 110.195 28.0374V26.3223C110.164 22.8933 107.392 20.0868 103.989 20.0868L103.989 20.0865ZM8.43538 31.1858H6.38766C4.67783 31.1858 3.2928 29.7825 3.2928 28.0529V26.3378C3.2928 24.6069 4.67906 23.2049 6.38766 23.2049H8.43538V31.1858ZM16.674 35.8321C16.674 36.3312 16.274 36.7361 15.7808 36.7361C13.4251 36.7361 11.5147 34.8035 11.5147 32.4175V21.9575C11.5147 19.5728 13.4239 17.6389 15.7808 17.6389C16.274 17.6389 16.674 18.0439 16.674 18.543V35.8321ZM23.4035 43.8445C23.4035 44.8574 22.5868 45.6999 21.5707 45.6999C20.5701 45.6999 19.7379 44.8731 19.7379 43.8445V35.8321L19.7391 18.5589V10.5464C19.7391 9.53355 20.5558 8.69109 21.5719 8.69109C22.588 8.69109 23.4047 9.51783 23.4047 10.5464L23.4035 43.8445ZM30.1483 21.8332V49.2232C30.1483 50.2361 29.3316 51.0785 28.3155 51.0785C27.2994 51.0785 26.4827 50.2518 26.4827 49.2232V43.8603L26.4839 10.548V5.18506C26.4839 4.1722 27.3006 3.32974 28.3167 3.32974C29.3328 3.32974 30.1495 4.15648 30.1495 5.18506L30.1483 21.8332ZM77.1474 29.4406H33.2294V24.9358H77.1657L77.1645 29.4406H77.1474ZM83.8934 10.5467V49.2244C83.8934 50.2373 83.0767 51.0798 82.0606 51.0798C81.0445 51.0798 80.2278 50.253 80.2278 49.2244V5.16897C80.2278 4.15611 81.0445 3.31365 82.0606 3.31365C83.0767 3.31365 83.8934 4.14039 83.8934 5.16897V10.5467ZM90.623 18.5592V43.8436C90.623 44.8565 89.8062 45.6989 88.7902 45.6989C87.7741 45.6989 86.9574 44.8722 86.9574 43.8436V10.5467C86.9574 9.53386 87.7741 8.6914 88.7902 8.6914C89.7907 8.6914 90.623 9.51814 90.623 10.5467V18.5592ZM98.8615 32.4337C98.8615 34.8184 96.9523 36.7523 94.5954 36.7523C94.1022 36.7523 93.7023 36.3474 93.7023 35.8482V18.5592C93.7023 18.06 94.1022 17.6551 94.5954 17.6551C96.9511 17.6551 98.8615 19.5878 98.8615 21.9737V32.4337ZM107.085 28.0535C107.085 29.7843 105.698 31.1864 103.99 31.1864H101.942V23.2042H103.99C105.7 23.2042 107.085 24.6075 107.085 26.3371V28.0535Z" fill="black" stroke="black" stroke-width="0.390625"/>
</svg>
