<svg width="73" height="73" viewBox="0 0 73 73" fill="none" xmlns="http://www.w3.org/2000/svg">
<path d="M36.2351 27.2216L40.5578 24.5673C41.8725 23.76 42.601 22.3015 42.5466 20.8244L49.8203 17.6948C50.2718 17.5008 50.4839 16.9809 50.2976 16.526C48.9669 13.2861 46.9497 11.3638 44.6162 11.1132C44.0119 11.0483 43.3553 11.1216 42.6673 11.3323L39.2265 12.3846L38.6236 10.9806C38.2607 10.1363 37.5978 9.50202 36.5964 9.04155C34.9315 8.27679 32.9323 8.40587 31.2492 9.38696L25.8833 12.5159C25.5637 12.2096 25.1722 11.9549 24.674 11.7407C23.1556 11.0889 21.4349 11.1217 19.9088 11.7323C19.8997 11.7358 19.8907 11.7407 19.8816 11.7442C19.6269 11.8474 19.3771 11.9626 19.135 12.0986C19.0854 12.1265 19.0387 12.1607 18.9898 12.19C18.7861 12.3115 18.5844 12.4364 18.3932 12.5808C18.2774 12.668 18.1713 12.7713 18.0611 12.8669C17.9501 12.9632 17.8329 13.049 17.7275 13.1537L13.1592 17.7221C13.0496 17.8316 12.9589 17.9551 12.8584 18.0716C12.7684 18.177 12.67 18.2768 12.5877 18.3863C12.4342 18.588 12.3023 18.8008 12.1746 19.0164C12.1537 19.0527 12.1271 19.0869 12.1069 19.1239C11.1495 20.8202 10.9793 22.8836 11.7455 24.6678C11.9597 25.1667 12.2144 25.5582 12.5207 25.8777L9.39175 31.2437C8.40997 32.9275 8.28087 34.9259 9.04635 36.5909C9.50688 37.5922 10.1412 38.2558 10.9854 38.618L12.3894 39.2209L11.3364 42.6617C11.1257 43.3491 11.0524 44.005 11.1173 44.6106C11.3678 46.9447 13.2902 48.9627 16.5301 50.2921C16.6417 50.3374 16.7575 50.3598 16.8713 50.3598C17.2209 50.3598 17.5523 50.1553 17.6982 49.8155L20.8326 42.5306C20.8829 42.5327 20.9331 42.546 20.9834 42.546C22.4069 42.546 23.7913 41.8217 24.5707 40.5532L27.225 36.2304C27.5048 36.312 27.7923 36.3567 28.0798 36.3567C28.8697 36.3567 29.6547 36.0511 30.2512 35.4538L35.4595 30.2455C36.2717 29.434 36.5403 28.2722 36.2347 27.222L36.2351 27.2216ZM43.1927 13.0532C43.6469 12.9143 44.0621 12.8634 44.4229 12.9024C46.2817 13.102 47.5441 14.9288 48.2683 16.4026L42.093 19.0597L39.9402 14.0482L43.1927 13.0532ZM32.1551 10.9424C33.333 10.2558 34.7112 10.1567 35.843 10.678C36.4298 10.9473 36.7871 11.2697 36.9685 11.6911L40.5607 20.0533C41.0254 21.1356 40.6193 22.4166 39.6152 23.0329L35.3378 25.6601L26.9845 13.9575L32.1551 10.9424ZM18.967 14.4594C19.8553 13.5711 21.0268 13.0959 22.2242 13.0959C22.6945 13.0959 23.1697 13.1699 23.633 13.3206C24.2247 13.5125 24.568 13.7218 24.7802 14.0205L34.2994 27.3565C34.6622 27.8652 34.605 28.5546 34.1633 28.9963L28.9954 34.1642C28.553 34.6052 27.865 34.6617 27.357 34.2988L14.0224 24.7789C13.7238 24.5661 13.5151 24.2228 13.3225 23.6318C12.8557 22.1971 13.1306 20.6502 14.0336 19.4569C14.0552 19.4283 14.0817 19.4025 14.1048 19.3746C14.2164 19.2336 14.3329 19.0948 14.4627 18.965L18.967 14.4594ZM16.4047 48.2657C14.9309 47.5414 13.1048 46.2798 12.9052 44.4202C12.8662 44.0574 12.9171 43.6436 13.0553 43.1901L14.0503 39.937L19.0619 42.0904L16.4047 48.2657ZM23.0357 39.6131C22.4189 40.6172 21.137 41.0226 20.0561 40.5586L11.6939 36.9664C11.2718 36.7857 10.9501 36.4277 10.6807 35.8409C10.1602 34.7091 10.2586 33.3302 10.9452 32.153L13.9604 26.9825L25.663 35.3357L23.0357 39.6131Z" fill="black" stroke="black" stroke-width="0.390625"/>
<path d="M10.7275 10.7267C-3.31541 24.7696 -3.31541 47.618 10.7275 61.6604C17.7487 68.6815 26.972 72.1927 36.1952 72.1927C45.4184 72.1927 54.6409 68.6823 61.6629 61.6604C75.7058 47.6175 75.7058 24.769 61.6629 10.7267C47.6201 -3.3155 24.7716 -3.31478 10.7293 10.7267H10.7275ZM60.3893 60.3885C47.0475 73.7302 25.3415 73.7288 12.0011 60.3885C-1.33991 47.0475 -1.33991 25.3407 12.0011 12.0003C18.672 5.33017 27.4342 1.99473 36.1952 1.99473C44.9563 1.99473 53.7188 5.33017 60.3893 12.0003C73.7303 25.3414 73.7303 47.0482 60.3893 60.3885Z" fill="black" stroke="black" stroke-width="0.390625"/>
<path d="M54.5497 37.8111L54.2594 37.781C52.7801 37.6275 51.4724 36.7567 50.7607 35.4519L50.6205 35.1944C49.4601 33.0683 47.232 31.7934 44.817 31.9079C42.3971 32.007 40.2835 33.443 39.301 35.6577L39.1824 35.925C38.5795 37.2843 37.3473 38.259 35.8868 38.5327L35.5979 38.5864C33.2171 39.0323 31.3323 40.7579 30.6785 43.0899C30.0254 45.422 30.7385 47.8761 32.5402 49.4943C33.7823 50.6101 34.3964 52.2652 34.1814 53.9217V53.921C33.8695 56.3227 34.9288 58.6493 36.9447 59.9917C38.0095 60.7006 39.2244 61.0572 40.4427 61.0572C41.5305 61.0572 42.6211 60.7732 43.6099 60.1996L43.8632 60.0531C45.1506 59.3078 46.7199 59.2437 48.0632 59.8814L48.3291 60.007C50.5173 61.046 53.0559 60.7578 54.956 59.2548C56.8554 57.7525 57.7207 55.3479 57.2141 52.9796L57.1527 52.6928C56.8415 51.2393 57.2657 49.7259 58.2866 48.6464L58.4876 48.4336C60.1511 46.6738 60.6619 44.1694 59.8196 41.8988C58.9795 39.6275 56.9601 38.0611 54.55 37.8112L54.5497 37.8111ZM57.181 47.1963L56.98 47.4091C55.5516 48.9205 54.9579 51.0362 55.3933 53.0696L55.4547 53.3557C55.8224 55.0751 55.2188 56.7526 53.84 57.8424C52.4604 58.9338 50.688 59.1334 49.1021 58.3804L48.8369 58.2548C46.9584 57.3631 44.7625 57.4517 42.9636 58.4949L42.7103 58.6414C41.1885 59.5213 39.4071 59.4655 37.9444 58.4928C36.4812 57.518 35.7422 55.8956 35.9689 54.1525V54.1518C36.2599 51.9078 35.4281 49.6658 33.7451 48.1537C32.4375 46.9793 31.94 45.2677 32.4137 43.5748C32.8882 41.882 34.2036 40.6782 35.9307 40.3539L36.2195 40.3001C38.2633 39.917 39.9869 38.5536 40.8299 36.6535L40.9485 36.3863C41.6617 34.7792 43.1361 33.7766 44.8924 33.7046C44.9594 33.7018 45.0257 33.7004 45.0912 33.7004C46.7652 33.7004 48.232 34.5699 49.0421 36.0548L49.1823 36.3123C50.1774 38.1377 52.0069 39.3553 54.0765 39.5702L54.3668 39.6002C56.1155 39.7816 57.5243 40.8744 58.1356 42.5225C58.7441 44.172 58.3882 45.9194 57.181 47.1963Z" fill="black" stroke="black" stroke-width="0.390625"/>
<path d="M43.2476 40.8478C41.5583 41.4737 40.213 42.7213 39.4615 44.359C38.7093 45.9967 38.6409 47.8291 39.2675 49.5192C39.8934 51.2085 41.141 52.5538 42.778 53.3053C43.6754 53.7177 44.6313 53.9242 45.5901 53.9242C46.3814 53.9242 47.174 53.7833 47.9382 53.5C51.4264 52.207 53.212 48.3168 51.919 44.8286C50.6253 41.3404 46.7351 39.5548 43.2476 40.8478ZM47.3123 51.8121C46.0737 52.2713 44.729 52.2203 43.5288 51.6698C42.3279 51.1185 41.4131 50.1325 40.954 48.8933C40.4948 47.6547 40.5451 46.3108 41.0963 45.1098C41.6476 43.9089 42.6336 42.9948 43.8728 42.5357C44.438 42.3264 45.0172 42.2273 45.5873 42.2273C47.5976 42.2273 49.492 43.4624 50.231 45.4545C51.1793 48.0111 49.8697 50.8638 47.3123 51.8121Z" fill="black" stroke="black" stroke-width="0.390625"/>
<path d="M44.6441 44.617C43.9749 44.8647 43.4425 45.3587 43.1445 46.0077C42.8466 46.6566 42.8194 47.3823 43.0678 48.0514C43.2024 48.4143 43.5458 48.639 43.9114 48.639C44.0154 48.639 44.1208 48.6208 44.224 48.5824C44.6901 48.4101 44.9274 47.8923 44.755 47.4255C44.5883 46.9747 44.8185 46.4716 45.2693 46.3042C45.7354 46.1318 45.9727 45.6141 45.8003 45.1472C45.628 44.6818 45.1095 44.4439 44.6441 44.617Z" fill="black" stroke="black" stroke-width="0.390625"/>
</svg>
