<?xml version="1.0" encoding="UTF-8"?>
<svg version="1.1" xmlns="http://www.w3.org/2000/svg" width="350" height="350">
<path d="M0 0 C3.03932526 1.92870485 5.29497333 4.39323523 7.6875 7.0625 C8.31205078 7.71927734 8.93660156 8.37605469 9.58007812 9.05273438 C13.092646 12.77818515 16.43873802 16.63482389 19.71264648 20.57080078 C21.28888918 22.32072013 23.10429937 23.61468031 25 25 C25 25.66 25 26.32 25 27 C25.99 27.33 26.98 27.66 28 28 C28 28.66 28 29.32 28 30 C28.57105469 30.226875 29.14210937 30.45375 29.73046875 30.6875 C34.54833961 33.47373857 37.65165709 38.6505478 41 43 C41.66 43.85722656 42.32 44.71445313 43 45.59765625 C47.07142374 51.13444156 49.68079392 56.55997282 52 63 C53.08007131 65.6273015 54.1715777 68.24958811 55.265625 70.87109375 C56 73 56 73 56 76 C56.72364746 75.97381592 57.44729492 75.94763184 58.19287109 75.9206543 C81.18929597 75.20076304 98.31636562 77.84848467 118 90 C119.02059592 90.97897088 120.02279453 91.9777136 121 93 C122.30642146 94.1320531 123.61930182 95.25668216 124.9375 96.375 C128.00673461 99.04024029 130.54103857 101.75065811 133 105 C133.62648438 105.6084375 134.25296875 106.216875 134.8984375 106.84375 C148.84209753 121.1502562 153.50113699 143.01755311 153.3581543 162.33886719 C153.14335349 169.76920511 151.86310127 176.7977335 150 184 C149.67515625 185.25876953 149.67515625 185.25876953 149.34375 186.54296875 C146.09172796 197.47982859 139.29181611 209.13397985 131 217 C130.195625 217.804375 129.39125 218.60875 128.5625 219.4375 C126 222 126 222 123.8690033 223.78675842 C121.43769364 226.66587352 121.51160294 228.23990845 121.53344727 231.97436523 C121.5298671 233.17919052 121.52628693 234.38401581 121.52259827 235.62535095 C121.54428322 237.57230614 121.54428322 237.57230614 121.56640625 239.55859375 C121.56411889 240.90854006 121.55935647 242.25848425 121.55223083 243.6084137 C121.53059214 248.60991726 121.54790632 253.61108584 121.57373047 258.61254883 C121.5951607 262.84144715 121.59704124 267.06938302 121.57081413 271.29826546 C121.5664745 273.27746458 121.59118027 275.25665866 121.61634827 277.23570251 C121.56065707 287.22833615 121.56065707 287.22833615 118.58959961 290.29321289 C115.09690633 292.59522276 113.3634056 293.13053803 109.22509766 293.17700195 C108.2287027 293.18983719 107.23230774 293.20267242 106.20571899 293.21589661 C105.11947235 293.22328354 104.03322571 293.23067047 102.9140625 293.23828125 C101.78793549 293.246353 100.66180847 293.25442474 99.5015564 293.26274109 C97.1022903 293.27660699 94.70300427 293.28731786 92.30371094 293.29516602 C89.88340353 293.30657044 87.46311888 293.32683346 85.04296875 293.35668945 C57.58533679 293.6953689 35.86164053 290.43072176 14 273 C13.07574219 272.30390625 12.15148437 271.6078125 11.19921875 270.890625 C10.11060547 269.95476562 10.11060547 269.95476562 9 269 C9 268.34 9 267.68 9 267 C8.01 266.67 7.02 266.34 6 266 C4.28125 264.07421875 4.28125 264.07421875 2.5 261.6875 C1.9121875 260.90761719 1.324375 260.12773437 0.71875 259.32421875 C0.1515625 258.55722656 -0.415625 257.79023438 -1 257 C-1.5671875 256.28457031 -2.134375 255.56914062 -2.71875 254.83203125 C-4 253 -4 253 -4 251 C-6.43739492 253.25711423 -8.11998465 255.62473216 -9.875 258.4375 C-12.22598879 262.03381454 -14.46948509 264.49147625 -18 267 C-20.17683703 269.10881088 -22.25419285 271.27480308 -24.3125 273.5 C-26.7833921 275.79850428 -29.17417976 277.31677647 -32.10668945 278.94726562 C-33.88743892 279.93741285 -35.64583041 280.96746862 -37.40234375 282 C-51.86413782 290.28743858 -66.75495514 293.1196219 -83.33984375 293.23828125 C-84.42076797 293.246353 -85.5016922 293.25442474 -86.6153717 293.26274109 C-88.89387433 293.27652391 -91.1723971 293.28727179 -93.45092773 293.29516602 C-95.77358071 293.30671341 -98.09620659 293.32720832 -100.41870117 293.35668945 C-103.78843068 293.39941677 -107.15737683 293.41553905 -110.52734375 293.42578125 C-111.55778305 293.44328934 -112.58822235 293.46079742 -113.64988708 293.47883606 C-119.72192158 293.46066933 -125.12706632 292.95230581 -130 289 C-132.17527011 285.77341675 -132.24607989 283.04276832 -132.23950195 279.20922852 C-132.24323318 278.04444473 -132.24696442 276.87966095 -132.25080872 275.67958069 C-132.24667465 274.42535812 -132.24254059 273.17113556 -132.23828125 271.87890625 C-132.24975207 269.9048398 -132.26125197 267.93077301 -132.27447033 265.95671749 C-132.30465271 261.0927953 -132.31533778 256.22899181 -132.30541992 251.36499023 C-132.30069595 248.63378604 -132.30914226 245.90321747 -132.33183289 243.17210388 C-132.35246696 240.601274 -132.35330668 238.03019313 -132.33235168 235.45936584 C-132.18910955 229.54264947 -132.18910955 229.54264947 -134.15536499 224.14059448 C-135.64439874 222.63262804 -135.64439874 222.63262804 -138 221 C-138 220.34 -138 219.68 -138 219 C-138.87011719 218.6596875 -138.87011719 218.6596875 -139.7578125 218.3125 C-144.401487 215.59425151 -147.03436448 210.37373765 -150 206 C-150.54140625 205.23558594 -151.0828125 204.47117188 -151.640625 203.68359375 C-156.79488628 195.8843826 -159.3967402 186.90982697 -162 178 C-162.27614136 177.07791748 -162.27614136 177.07791748 -162.55786133 176.13720703 C-165.70722011 160.91385707 -164.11308238 143.21767885 -158 129 C-157.59652344 127.95199219 -157.19304687 126.90398437 -156.77734375 125.82421875 C-155.89164823 123.52902928 -154.97222608 121.25947513 -154 119 C-153.34 119 -152.68 119 -152 119 C-151.62875 117.6696875 -151.62875 117.6696875 -151.25 116.3125 C-149.95467171 112.87988002 -148.37603087 110.75926166 -146 108 C-145.67 107.34 -145.34 106.68 -145 106 C-144.34 106 -143.68 106 -143 106 C-142.76152344 105.43796875 -142.52304688 104.8759375 -142.27734375 104.296875 C-140.71903908 101.49478586 -138.82243325 99.52106593 -136.5625 97.25 C-135.78003906 96.45078125 -134.99757813 95.6515625 -134.19140625 94.828125 C-132 93 -132 93 -129 93 C-129 92.34 -129 91.68 -129 91 C-127.03537778 89.47196049 -125.14576521 88.24763242 -123 87 C-122.195625 86.53207031 -121.39125 86.06414062 -120.5625 85.58203125 C-103.35757335 76.28659171 -86.27475711 75.1142241 -67 75 C-65.36709941 71.27536726 -63.81882129 67.65960012 -62.6875 63.75 C-59.4413449 53.87767262 -53.55097756 44.99691405 -47 37 C-46.34 36.67 -45.68 36.34 -45 36 C-44.54625 35.236875 -44.0925 34.47375 -43.625 33.6875 C-41.99622851 30.99376253 -40.36811253 29.06254962 -38 27 C-37.34 27 -36.68 27 -36 27 C-35.505 25.515 -35.505 25.515 -35 24 C-33.328125 22.3515625 -33.328125 22.3515625 -31.25 20.625 C-26.92739707 16.94963173 -22.94320847 13.22243414 -19.4375 8.75 C-16.93347423 5.92494528 -16.42078492 5.70774861 -13 5 C-11.8499169 3.03327085 -11.8499169 3.03327085 -11 1 C-7.43967751 -0.78016125 -3.86881646 -0.75780941 0 0 Z M-6 25 C-6.66 25.680625 -7.32 26.36125 -8 27.0625 C-10.25738897 29.33275158 -12.62853426 31.42089281 -15.0625 33.5 C-18.0941354 36.12287557 -20.56244346 38.80596039 -23 42 C-24.66666667 43.66666667 -26.33333333 45.33333333 -28 47 C-34.06107608 53.18251841 -38.65724607 58.98528683 -42 67 C-42.46019531 68.06927734 -42.46019531 68.06927734 -42.9296875 69.16015625 C-44.6579121 73.43133989 -45.52295615 77.42037907 -46 82 C-42.99114811 84.3843732 -39.89294101 86.21031683 -36.5 88 C-33.76868905 89.44069149 -31.24025131 90.81727365 -28.78125 92.6875 C-27.1004113 94.19773301 -27.1004113 94.19773301 -25 94 C-24.67 94.99 -24.34 95.98 -24 97 C-22.24118094 98.78255008 -22.24118094 98.78255008 -20.125 100.5 C-15.84982321 104.0968277 -12.81942283 107.15059272 -10 112 C-8.67541292 114.00580329 -7.3440093 116.00715862 -6 118 C-2.39610237 114.5963189 0.29826716 111.14265703 3 107 C4 106 5 105 6 104 C6 103.34 6 102.68 6 102 C6.57234375 101.75378906 7.1446875 101.50757813 7.734375 101.25390625 C10.36516125 99.79790213 12.11486901 98.05396726 14.25 95.9375 C20.71658738 89.95639215 28.24172616 86.07164992 36 82 C34.72407512 69.49327798 28.60349544 59.76952067 21 50 C20.34 49.67 19.68 49.34 19 49 C18.505 47.515 18.505 47.515 18 46 C16.17152042 44.18498746 16.17152042 44.18498746 14 42.4375 C10.09923664 39.19847328 10.09923664 39.19847328 9 37 C8.01 37 7.02 37 6 37 C5.7525 36.38125 5.505 35.7625 5.25 35.125 C4.17856271 32.86253506 4.17856271 32.86253506 2 32 C-0.52845528 30.73577236 -0.76422764 29.47154472 -2 27 C-4.0335948 25.73195434 -4.0335948 25.73195434 -6 25 Z M-94 97 C-94.90363281 97.17273438 -95.80726562 97.34546875 -96.73828125 97.5234375 C-111.18192391 100.74242588 -123.9435374 110.75613587 -132 123 C-132 123.66 -132 124.32 -132 125 C-132.66 125 -133.32 125 -134 125 C-142.39067228 142.08004162 -146.75745162 159.0504982 -140.75 177.75 C-135.89640551 191.85401637 -135.89640551 191.85401637 -125.8125 202.2265625 C-124.9153125 202.60941406 -124.9153125 202.60941406 -124 203 C-123.47212891 202.07380859 -123.47212891 202.07380859 -122.93359375 201.12890625 C-119.75217598 195.67148726 -116.34134829 190.68648277 -112.3203125 185.8125 C-110.80373567 184.10430625 -110.80373567 184.10430625 -111 182 C-109.02 181.505 -109.02 181.505 -107 181 C-106.938125 180.38125 -106.87625 179.7625 -106.8125 179.125 C-106.544375 178.42375 -106.27625 177.7225 -106 177 C-104.34750513 176.29894157 -102.67632417 175.64199649 -101 175 C-99.72741843 174.0933896 -98.47938837 173.15187052 -97.25 172.1875 C-83.9192632 161.9656104 -69.27104832 159.2466301 -53 157 C-54.19843656 153.93200242 -55.45973445 150.94366149 -56.9375 148 C-57.25589844 147.360625 -57.57429688 146.72125 -57.90234375 146.0625 C-58.71467515 144.53612641 -59.58949408 143.0426493 -60.49609375 141.5703125 C-65.34691005 133.27982647 -67 124.51551994 -67 115 C-59.22898338 116.08696892 -51.40260913 117.89340277 -46.1875 124.1875 C-45.49792025 125.8207152 -44.82392153 127.46103638 -44.19140625 129.1171875 C-38.87298605 142.93183915 -31.49118317 155.89937728 -18 163 C-17.01 163 -16.02 163 -15 163 C-14.83248265 156.73981455 -15.28091069 151.15772032 -16.6875 145.0625 C-16.86684082 144.27762207 -17.04618164 143.49274414 -17.23095703 142.68408203 C-20.20481598 130.36817773 -26.3180622 120.70875175 -36.0703125 112.640625 C-38 111 -38 111 -39.91015625 109.015625 C-53.8358912 95.58444886 -75.87446103 92.9394879 -94 97 Z M55 97 C54.12085938 97.17273438 53.24171875 97.34546875 52.3359375 97.5234375 C44.1956444 99.32978496 37.84843534 103.41816329 31 108 C30.01 108.66 29.02 109.32 28 110 C28 110.66 28 111.32 28 112 C27.40960938 112.2578125 26.81921875 112.515625 26.2109375 112.78125 C19.13156468 116.68366046 14.68285292 125.0895919 11 132 C10.51015625 132.87011719 10.0203125 133.74023438 9.515625 134.63671875 C4.93264319 143.86705009 5.52734986 152.95881036 6 163 C18.39780612 159.1654497 25.05398 147.94359508 31 137 C32.33190633 134.02882435 33.62987875 131.08696529 34.6796875 128.00390625 C37.01462482 122.12208796 40.6388916 119.82605242 46.2265625 117.0546875 C49.80781232 115.69280376 52.23037668 115.49738356 56 116 C59.05609468 123.93790827 52.42246194 137.12833856 49.23828125 144.47265625 C48.17978803 146.63305093 47.07090347 148.53977106 45.6875 150.5 C43.6270181 153.04986043 43.6270181 153.04986043 44 157 C44.74121094 157.08636719 45.48242188 157.17273438 46.24609375 157.26171875 C69.05457882 160.30471125 88.67657803 169.07617616 103.5 187.1875 C107.51598398 192.51672768 111.06842625 198.00479963 114 204 C117.66362581 201.32654333 119.77251657 198.92461366 122 195 C122.66 194.67 123.32 194.34 124 194 C125.1102728 191.6785205 126.07299051 189.39583275 127 187 C127.33386719 186.16726562 127.66773438 185.33453125 128.01171875 184.4765625 C134.34722648 168.03721529 134.35843282 152.64877621 129 136 C128.04143087 133.97981555 127.04871569 131.97489124 126 130 C125.31471955 128.34089996 124.64108137 126.67667436 124 125 C123.34 125 122.68 125 122 125 C121.690625 123.9790625 121.690625 123.9790625 121.375 122.9375 C117.17156205 113.95742801 109.02255337 109.19999045 101 104 C100.35933594 103.56429687 99.71867187 103.12859375 99.05859375 102.6796875 C86.20271861 94.49574693 69.44757 93.39895402 55 97 Z M-62.875 177.75 C-63.56682373 177.92974365 -64.25864746 178.1094873 -64.97143555 178.29467773 C-75.38610169 180.97346666 -75.38610169 180.97346666 -84 187 C-84.99 187.33 -85.98 187.66 -87 188 C-88.02019573 188.9793879 -89.02149805 189.97895449 -90 191 C-90.99 191.495 -90.99 191.495 -92 192 C-92 192.66 -92 193.32 -92 194 C-92.66 194 -93.32 194 -94 194 C-94 194.66 -94 195.32 -94 196 C-94.66 196 -95.32 196 -96 196 C-107.0448068 208.70152782 -112.17398887 224.42270751 -112.1328125 241.08203125 C-112.13376923 241.93681564 -112.13472595 242.79160004 -112.13571167 243.67228699 C-112.13638922 245.46829299 -112.13456472 247.2643015 -112.13037109 249.06030273 C-112.12498369 251.82085581 -112.13034731 254.58124861 -112.13671875 257.34179688 C-112.13605854 259.08854203 -112.13477856 260.83528708 -112.1328125 262.58203125 C-112.13483673 263.41112503 -112.13686096 264.24021881 -112.13894653 265.09443665 C-112.48782772 268.85238137 -112.48782772 268.85238137 -111 272 C-108.15721083 272.13887354 -105.34068369 272.21330974 -102.49609375 272.23828125 C-101.62541763 272.246353 -100.75474152 272.25442474 -99.85768127 272.26274109 C-98.00060022 272.27661697 -96.14349329 272.28732333 -94.28637695 272.29516602 C-91.50093264 272.31211404 -88.71676035 272.35593005 -85.93164062 272.40039062 C-70.84067794 272.53232738 -57.28583898 270.79265555 -44 263 C-44 262.34 -44 261.68 -44 261 C-43.360625 260.87625 -42.72125 260.7525 -42.0625 260.625 C-41.381875 260.41875 -40.70125 260.2125 -40 260 C-39.67 259.34 -39.34 258.68 -39 258 C-38.01 257.67 -37.02 257.34 -36 257 C-24.00383726 245.64160794 -16.64029765 232.55169432 -16 216 C-24.02932535 221.96982114 -24.02932535 221.96982114 -31.69140625 228.3984375 C-44.73726525 239.23888729 -64.01320588 242.30625907 -80.375 242.4375 C-81.38054932 242.44773193 -82.38609863 242.45796387 -83.42211914 242.46850586 C-84.3630542 242.45698486 -85.30398926 242.44546387 -86.2734375 242.43359375 C-87.11310059 242.42384521 -87.95276367 242.41409668 -88.81787109 242.40405273 C-91.51344808 241.90492766 -92.41392079 241.21715779 -94 239 C-94.42387165 233.82876581 -94.11678837 229.8215735 -92 225 C-88.93978207 223.46989103 -85.67757819 223.7529091 -82.3125 223.625 C-61.88448976 222.61108983 -45.91500653 217.10197046 -31 203 C-29.948125 202.01386719 -29.948125 202.01386719 -28.875 201.0078125 C-27.04430625 199.04744461 -25.91592497 197.33875023 -24.75 194.9375 C-24.41484375 194.26589844 -24.0796875 193.59429687 -23.734375 192.90234375 C-22.81993295 190.87341156 -22.81993295 190.87341156 -23 188 C-23.66 188 -24.32 188 -25 188 C-25.22558594 187.40445313 -25.45117188 186.80890625 -25.68359375 186.1953125 C-28.60464581 181.32400314 -35.22940642 178.93828409 -40.4453125 177.171875 C-48.14184218 175.29467264 -55.2613719 175.717394 -62.875 177.75 Z M19 182 C19 182.66 19 183.32 19 184 C17.02 184.99 17.02 184.99 15 186 C15 186.66 15 187.32 15 188 C14.34 188 13.68 188 13 188 C14.80422327 197.42205488 21.16536001 203.68329592 28.3984375 209.58984375 C30 211 30 211 31 213 C32.65249487 213.70105843 34.32367583 214.35800351 36 215 C37.2114107 215.64004239 38.41946356 216.28646081 39.625 216.9375 C47.83980413 221.09925332 57.1050464 222.88504432 66.26171875 223.17578125 C66.98810547 223.19962891 67.71449219 223.22347656 68.46289062 223.24804688 C69.95738179 223.29134644 71.45227297 223.32241495 72.94726562 223.34179688 C76.47895242 223.47726747 78.59986842 223.69783387 81.45703125 225.85546875 C83.59433037 228.82604398 84.18356753 231.41703459 84.3125 235 C84.36857422 236.0209375 84.36857422 236.0209375 84.42578125 237.0625 C84 239 84 239 82.25463867 240.59179688 C78.40392454 242.99687745 74.43477133 242.53009853 70 242.5 C69.02611328 242.49427979 68.05222656 242.48855957 67.04882812 242.48266602 C46.00535803 241.97700982 24.94429963 234.20017288 9.9375 219.0625 C9.298125 218.381875 8.65875 217.70125 8 217 C7.34 216.67 6.68 216.34 6 216 C4.66234708 226.9737082 9.65068622 236.3226045 16 245 C16.639375 246.010625 17.27875 247.02125 17.9375 248.0625 C26.70305271 260.54677204 41.05121913 268.36751029 55.72241211 271.39575195 C64.17214224 272.77065511 72.84561885 272.30567459 81.375 272.1875 C83.2864477 272.17241475 85.19790702 272.15873319 87.109375 272.14648438 C91.73987615 272.1138088 96.36980579 272.06224237 101 272 C102.13959068 267.50076435 102.10505052 263.11360632 102.01953125 258.5078125 C102.00540695 257.68481659 101.99128265 256.86182068 101.97673035 256.0138855 C101.94367768 254.27058625 101.90733261 252.52734674 101.86791992 250.78417969 C101.81340827 248.16858102 101.78430484 245.55349293 101.75585938 242.9375 C101.52891285 224.89820317 101.52891285 224.89820317 94 209 C93.71640625 208.22140625 93.4328125 207.4428125 93.140625 206.640625 C88.01312767 194.77011748 74.29506605 185.57986821 62.83203125 180.6328125 C48.08284045 175.40476815 33.02132806 173.82089197 19 182 Z " fill="#0C0C0C" transform="translate(182,49)"/>
</svg>
